<svg width="32" height="29" viewBox="0 0 32 29" fill="none" xmlns="http://www.w3.org/2000/svg">
<path d="M21.9044 28.0801H1.46512C1.20672 28.0801 1 27.8734 1 27.615V1.46512C1 1.20672 1.20672 1 1.46512 1H21.9044C22.1628 1 22.3695 1.20672 22.3695 1.46512V27.615C22.3437 27.8734 22.137 28.0801 21.9044 28.0801ZM1.90439 27.1757H21.4393V1.90439H1.90439V27.1757Z" fill="#016086" stroke="#016086" stroke-width="0.5"/>
<path d="M7.25294 9.81139C6.55526 9.81139 5.90927 9.553 5.36663 9.11372C4.79815 8.62276 4.4364 7.92509 4.41056 7.1499C4.3072 5.57367 5.49583 4.20416 7.07206 4.1008C7.58885 4.07496 8.10565 4.17832 8.54492 4.41088C8.77748 4.51424 8.855 4.79847 8.75164 5.03103C8.64828 5.26359 8.36405 5.34111 8.13149 5.23775C7.82141 5.08271 7.45965 5.00519 7.12374 5.03103C6.03846 5.10855 5.23743 6.03878 5.28911 7.09822C5.31495 7.61501 5.54751 8.10597 5.96095 8.44188C6.34854 8.7778 6.86534 8.95868 7.38213 8.93284C8.15733 8.88116 8.80332 8.39021 9.08756 7.66669C9.16508 7.43413 9.42348 7.30493 9.68187 7.40829C9.91443 7.48581 10.0436 7.77005 9.94027 8.00261C9.55268 9.06204 8.57076 9.78555 7.45965 9.83723C7.38213 9.81139 7.30461 9.81139 7.25294 9.81139Z" fill="#016086" stroke="#016086" stroke-width="0.5"/>
<path d="M7.64101 8.05434C7.53765 8.05434 7.40845 8.00266 7.33093 7.92515L6.0131 6.68484C5.83222 6.50396 5.83222 6.21972 5.98726 6.03884C6.16814 5.85796 6.45238 5.85796 6.63325 6.013L7.61517 6.96907L9.65651 4.97941C9.83739 4.79853 10.1216 4.79853 10.3025 4.97941C10.4834 5.16029 10.4834 5.44453 10.3025 5.6254L7.95108 7.92515C7.84772 8.0285 7.74437 8.05434 7.64101 8.05434Z" fill="#016086" stroke="#016086" stroke-width="0.5"/>
<path d="M7.25294 17.3824C6.55526 17.3824 5.90927 17.124 5.36663 16.6848C4.79815 16.1938 4.4364 15.4961 4.41056 14.7209C4.3072 13.1447 5.49583 11.7752 7.07206 11.6718C7.58885 11.646 8.10565 11.7494 8.54492 11.9819C8.77748 12.0853 8.855 12.3695 8.75164 12.6021C8.64828 12.8346 8.36405 12.9122 8.13149 12.8088C7.82141 12.6538 7.45965 12.5762 7.12374 12.6021C6.03846 12.6796 5.23743 13.6098 5.28911 14.6693C5.31495 15.1861 5.54751 15.677 5.96095 16.0129C6.34854 16.3488 6.86534 16.5297 7.38213 16.5039C8.15733 16.4522 8.80332 15.9613 9.08756 15.2377C9.16508 15.0052 9.44932 14.876 9.68187 14.9793C9.91443 15.0569 10.0436 15.3411 9.94027 15.5737C9.55268 16.6331 8.57076 17.3566 7.45965 17.4083C7.38213 17.3824 7.30461 17.3824 7.25294 17.3824Z" fill="#016086" stroke="#016086" stroke-width="0.5"/>
<path d="M7.64101 15.6254C7.53765 15.6254 7.40845 15.5737 7.33093 15.4962L6.0131 14.2559C5.83222 14.075 5.83222 13.7908 5.98726 13.6099C6.16814 13.429 6.45238 13.429 6.63325 13.584L7.61517 14.5401L9.65651 12.5505C9.83739 12.3696 10.1216 12.3696 10.3025 12.5505C10.4834 12.7313 10.4834 13.0156 10.3025 13.1964L7.95108 15.4962C7.84772 15.5995 7.74437 15.6254 7.64101 15.6254Z" fill="#016086" stroke="#016086" stroke-width="0.5"/>
<path d="M7.25294 24.9535C5.75423 24.9535 4.48808 23.7907 4.41056 22.292C4.3072 20.7158 5.49583 19.3462 7.07206 19.2429C7.58885 19.217 8.10565 19.3204 8.54492 19.553C8.77748 19.6563 8.855 19.9406 8.75164 20.1731C8.64828 20.4057 8.36405 20.4832 8.13149 20.3798C7.82141 20.2248 7.45965 20.1473 7.12374 20.1731C6.03846 20.2506 5.23743 21.1809 5.28911 22.2403C5.36663 23.3256 6.29686 24.1266 7.35629 24.0749C8.13149 24.0233 8.77748 23.5323 9.06172 22.8088C9.13924 22.5762 9.39764 22.447 9.65604 22.5504C9.88859 22.6279 10.0178 22.9121 9.91443 23.1447C9.52684 24.2041 8.54492 24.9276 7.43381 24.9793C7.38213 24.9535 7.30461 24.9535 7.25294 24.9535Z" fill="#016086" stroke="#016086" stroke-width="0.5"/>
<path d="M7.64101 23.1964C7.53765 23.1964 7.40845 23.1448 7.33093 23.0672L6.0131 21.8269C5.83222 21.646 5.83222 21.3618 5.98726 21.1809C6.16814 21.0001 6.45238 21.0001 6.63325 21.1551L7.61517 22.1112L9.65651 20.1215C9.83739 19.9406 10.1216 19.9406 10.3025 20.1215C10.4834 20.3024 10.4834 20.5866 10.3025 20.7675L7.95108 23.0672C7.84772 23.1706 7.74437 23.1964 7.64101 23.1964Z" fill="#016086" stroke="#016086" stroke-width="0.5"/>
<path d="M18.4937 8.62286H11.9046C11.6462 8.62286 11.4395 8.41614 11.4395 8.15774C11.4395 7.89935 11.6462 7.69263 11.9046 7.69263H18.4937C18.7521 7.69263 18.9588 7.89935 18.9588 8.15774C18.9588 8.41614 18.7521 8.62286 18.4937 8.62286Z" fill="#016086" stroke="#016086" stroke-width="0.5"/>
<path d="M15.9614 6.21978H11.9046C11.6462 6.21978 11.4395 6.01306 11.4395 5.75467C11.4395 5.49627 11.6462 5.28955 11.9046 5.28955H15.9614C16.2198 5.28955 16.4265 5.49627 16.4265 5.75467C16.4007 6.01306 16.2198 6.21978 15.9614 6.21978Z" fill="#016086" stroke="#016086" stroke-width="0.5"/>
<path d="M18.4937 16.1939H11.9046C11.6462 16.1939 11.4395 15.9872 11.4395 15.7288C11.4395 15.4704 11.6462 15.2637 11.9046 15.2637H18.4937C18.7521 15.2637 18.9588 15.4704 18.9588 15.7288C18.9588 15.9872 18.7521 16.1939 18.4937 16.1939Z" fill="#016086" stroke="#016086" stroke-width="0.5"/>
<path d="M15.9614 13.7908H11.9046C11.6462 13.7908 11.4395 13.5841 11.4395 13.3257C11.4395 13.0673 11.6462 12.8606 11.9046 12.8606H15.9614C16.2198 12.8606 16.4265 13.0673 16.4265 13.3257C16.4265 13.5841 16.2198 13.7908 15.9614 13.7908Z" fill="#016086" stroke="#016086" stroke-width="0.5"/>
<path d="M18.4937 23.7649H11.9046C11.6462 23.7649 11.4395 23.5582 11.4395 23.2998C11.4395 23.0414 11.6462 22.8347 11.9046 22.8347H18.4937C18.7521 22.8347 18.9588 23.0414 18.9588 23.2998C18.9588 23.5582 18.7521 23.7649 18.4937 23.7649Z" fill="#016086" stroke="#016086" stroke-width="0.5"/>
<path d="M15.9614 21.3619H11.9046C11.6462 21.3619 11.4395 21.1552 11.4395 20.8968C11.4395 20.6384 11.6462 20.4316 11.9046 20.4316H15.9614C16.2198 20.4316 16.4265 20.6384 16.4265 20.8968C16.4007 21.1552 16.2198 21.3619 15.9614 21.3619Z" fill="#016086" stroke="#016086" stroke-width="0.5"/>
<path d="M25.7542 22.938C25.7283 22.938 25.7025 22.938 25.6767 22.938C25.5475 22.9122 25.4183 22.8347 25.3407 22.7055L24.0487 20.1732C23.9971 20.0957 23.9971 19.9923 23.9971 19.8889L26.7361 4.69515C26.7878 4.43675 27.0203 4.28171 27.2529 4.33339L30.5862 4.9277C30.7154 4.95354 30.8188 5.00522 30.8705 5.10858C30.948 5.21194 30.9738 5.34114 30.948 5.4445L28.2606 20.6383C28.2348 20.7417 28.209 20.8192 28.1314 20.8967L26.0643 22.8088C25.9867 22.8864 25.8834 22.938 25.7542 22.938ZM24.9531 19.8631L25.8834 21.7236L27.3821 20.3024L30.0177 5.7029L27.563 5.26362L24.9531 19.8631Z" fill="#016086" stroke="#016086" stroke-width="0.5"/>
</svg>
