<svg width="29" height="32" viewBox="0 0 29 32" fill="none" xmlns="http://www.w3.org/2000/svg">
<path d="M27.8434 31.0004C27.5726 31.0004 27.3619 30.7897 27.3318 30.5189L26.5495 22.876C26.3389 20.9201 24.8644 19.3554 22.9387 19.0545L18.3048 18.3023L14.9347 20.198C14.7842 20.2882 14.5736 20.2882 14.4231 20.198L11.053 18.3023L6.41911 19.0545C4.49333 19.3554 3.01891 20.9502 2.80827 22.876L2.05602 30.5189C2.02593 30.8198 1.75512 31.0305 1.4843 31.0004C1.1834 30.9703 0.972769 30.6995 1.00286 30.4286L1.78521 22.7857C2.02593 20.3785 3.86143 18.4226 6.26866 18.0315L11.0831 17.2491C11.2035 17.219 11.3238 17.2491 11.4141 17.3093L14.6939 19.1448L17.9738 17.3093C18.064 17.2491 18.1844 17.219 18.3048 17.2491L23.1192 18.0315C25.5264 18.4226 27.3619 20.3785 27.6027 22.7857L28.385 30.4286C28.4151 30.7296 28.2045 30.9703 27.9036 31.0004C27.8735 31.0004 27.8735 31.0004 27.8434 31.0004Z" fill="#016086" stroke="#016086" stroke-width="0.5"/>
<path d="M11.1433 18.2722C11.0832 18.2722 10.9929 18.2722 10.9327 18.2421C10.6619 18.1218 10.5415 17.8209 10.6619 17.5501L11.1734 16.3765C11.2938 16.1057 11.5947 15.9854 11.8655 16.1057C12.1363 16.2261 12.2567 16.527 12.1363 16.7978L11.6248 17.9713C11.5646 18.1519 11.354 18.2722 11.1433 18.2722Z" fill="#016086" stroke="#016086" stroke-width="0.5"/>
<path d="M18.2144 18.2723C18.0038 18.2723 17.8233 18.1519 17.733 17.9413L17.2215 16.7678C17.1011 16.497 17.2215 16.1961 17.4923 16.0757C17.7631 15.9553 18.064 16.0757 18.1843 16.3465L18.6959 17.52C18.8162 17.7909 18.6959 18.0918 18.4251 18.2121C18.3649 18.2422 18.3047 18.2723 18.2144 18.2723Z" fill="#016086" stroke="#016086" stroke-width="0.5"/>
<path d="M14.6944 16.1057C11.8659 16.1057 10.1507 13.5179 9.45867 11.2311C8.67632 10.8098 8.61614 9.99739 8.61614 9.6664L8.55596 8.82387C8.49578 8.04152 8.7365 7.46981 9.21795 7.13881C9.15777 6.05556 9.24804 2.92617 10.9331 2.11374C10.9632 2.08365 10.9933 2.05356 10.9933 2.02347C11.234 1.51193 11.6252 1.21103 12.9191 1.06058C14.5439 0.849945 16.9211 1.18094 18.1247 2.17392L18.1548 2.20401C18.9371 2.8359 20.2009 3.85897 20.1708 7.1689C20.6523 7.4999 20.8629 8.07161 20.8328 8.85396L20.7726 9.6664C20.7425 9.99739 20.7124 10.8098 19.9602 11.2311C19.3283 13.6082 17.6131 16.1057 14.6944 16.1057ZM13.8819 2.05356C13.581 2.05356 13.3102 2.05356 13.0394 2.08365C12.0464 2.20401 11.9863 2.35446 11.9261 2.44473C11.8659 2.59518 11.7455 2.86599 11.3844 3.01644C10.3915 3.49789 10.1808 5.96529 10.2711 7.37953C10.2711 7.62026 10.1507 7.83089 9.94012 7.89107C9.72948 7.98134 9.57903 8.1017 9.60912 8.70351L9.6693 9.51594C9.69939 10.0576 9.81975 10.208 10.0906 10.2682C10.2711 10.3284 10.3915 10.4487 10.4216 10.6293C10.9331 12.6453 12.3774 14.9623 14.6944 14.9623C17.7335 14.9623 18.7566 11.6524 18.9973 10.6293C19.0274 10.4487 19.1778 10.3284 19.3283 10.2682C19.569 10.1779 19.6894 10.0576 19.7195 9.51594L19.7796 8.70351C19.8097 8.1017 19.6593 7.98134 19.4486 7.89107C19.238 7.8008 19.1176 7.59017 19.1176 7.37953C19.238 4.37051 18.1849 3.52798 17.5229 2.95626L17.4627 2.92617C16.6803 2.35446 15.1758 2.05356 13.8819 2.05356Z" fill="#016086" stroke="#016086" stroke-width="0.5"/>
<path d="M19.4482 5.69451C19.2075 5.69451 18.9969 5.54406 18.9367 5.30334C18.8765 5.06262 18.7561 4.88208 18.5455 4.76171C17.8534 4.37054 16.3188 4.46081 14.4231 5.06262C12.708 5.60424 11.4141 5.57415 10.6017 4.97235C9.96979 4.52099 9.81934 3.79883 9.81934 3.46783C9.81934 3.16693 10.0601 2.9563 10.361 2.9563C10.6619 2.9563 10.8725 3.19702 10.8725 3.46783C10.8725 3.49792 10.9026 3.8891 11.2637 4.12982C11.7752 4.4909 12.7983 4.46081 14.1222 4.03955C15.4161 3.64838 17.7331 3.07666 19.057 3.82892C19.5385 4.09973 19.8394 4.52099 19.9598 5.03253C20.0199 5.30334 19.8394 5.60424 19.5686 5.66442C19.5385 5.66442 19.4783 5.69451 19.4482 5.69451Z" fill="#016086" stroke="#016086" stroke-width="0.5"/>
<path d="M8.07385 25.0126C7.80304 25.0126 7.56232 24.8019 7.56232 24.5311C7.26142 20.2282 8.94647 17.8511 9.00665 17.7307C9.18719 17.49 9.51819 17.4298 9.72882 17.6103C9.96954 17.7909 10.0297 18.1219 9.84918 18.3325C9.81909 18.3626 8.34467 20.5291 8.58539 24.4408C8.61548 24.7417 8.37476 24.9825 8.10394 25.0126C8.10394 25.0126 8.10394 25.0126 8.07385 25.0126Z" fill="#016086" stroke="#016086" stroke-width="0.5"/>
<path d="M21.2236 23.237C20.9227 23.237 20.682 22.9963 20.682 22.6954C20.7121 19.897 19.689 18.3624 19.689 18.3624C19.5386 18.1217 19.5988 17.7907 19.8094 17.6402C20.0501 17.4898 20.3811 17.5499 20.5316 17.7606C20.5918 17.8208 21.7653 19.5961 21.7352 22.7255C21.7352 22.9963 21.4945 23.237 21.2236 23.237Z" fill="#016086" stroke="#016086" stroke-width="0.5"/>
<path d="M8.0736 29.3755C7.05054 29.3755 6.20801 28.533 6.20801 27.5099C6.20801 26.4868 7.05054 25.6443 8.0736 25.6443C9.09667 25.6443 9.9392 26.4868 9.9392 27.5099C9.9392 28.533 9.12676 29.3755 8.0736 29.3755ZM8.0736 26.6974C7.62225 26.6974 7.26117 27.0585 7.26117 27.5099C7.26117 27.9612 7.62225 28.3223 8.0736 28.3223C8.52496 28.3223 8.88604 27.9612 8.88604 27.5099C8.88604 27.0585 8.52496 26.6974 8.0736 26.6974Z" fill="#016086" stroke="#016086" stroke-width="0.5"/>
<path d="M19.2678 29.6763H18.4253C18.2447 29.6763 18.0642 29.586 17.9739 29.4356C17.4925 28.6532 17.2217 27.7204 17.2217 26.7576C17.2217 24.23 18.997 22.1838 21.2237 22.1838C23.4203 22.1838 25.2257 24.23 25.2257 26.7576C25.2257 27.6603 24.985 28.5329 24.5637 29.2851C24.4734 29.4356 24.2929 29.556 24.1124 29.556H23.2698C22.9689 29.556 22.7282 29.3152 22.7282 29.0143C22.7282 28.7134 22.9689 28.4727 23.2698 28.4727H23.7814C24.0221 27.9311 24.1725 27.3594 24.1725 26.7275C24.1725 24.7716 22.8486 23.2069 21.2237 23.2069C19.5988 23.2069 18.2748 24.8017 18.2748 26.7275C18.2748 27.3895 18.4253 28.0514 18.7262 28.5931H19.2678C19.5687 28.5931 19.8094 28.8338 19.8094 29.1347C19.8094 29.4657 19.5687 29.6763 19.2678 29.6763Z" fill="#016086" stroke="#016086" stroke-width="0.5"/>
</svg>
