<svg width="12" height="16" viewBox="0 0 12 16" fill="none" xmlns="http://www.w3.org/2000/svg">
<path d="M10.8358 6.64866L6.60603 0.304043C6.35654 -0.0305579 5.88306 -0.0995741 5.54845 0.149921C5.48992 0.193586 5.438 0.245507 5.39433 0.304043L1.16455 6.64866C-0.0248652 8.45261 -0.181951 10.748 0.750667 12.6972C1.60797 14.5401 3.3808 15.788 5.40497 15.9733C5.6009 15.9907 5.79927 16 6.00018 16C6.20109 16 6.39946 15.9907 6.59576 15.9733C8.61978 15.7879 10.3924 14.5401 11.2497 12.6972C12.1823 10.748 12.0252 8.45266 10.8358 6.64866ZM9.9359 12.0682C9.30766 13.4534 7.98074 14.3919 6.46525 14.5226C6.15594 14.5503 5.84474 14.5503 5.53543 14.5226C4.01988 14.3919 2.69275 13.4535 2.06446 12.0682C1.33958 10.5852 1.4584 8.82849 2.37625 7.45653L6.00018 2.02066L9.62411 7.45653C10.542 8.82849 10.6608 10.5851 9.9359 12.0682Z" fill="#407595"/>
</svg>
