<svg width="35" height="35" viewBox="0 0 35 35" fill="none" xmlns="http://www.w3.org/2000/svg">
<g opacity="0.5">
<g clip-path="url(#clip0_294_3370)">
<path d="M32.9492 7.24609C32.9492 5.54982 31.5693 4.16992 29.873 4.16992H26.7285V6.2207H29.873C30.4388 6.2207 30.8984 6.68035 30.8984 7.24609V18.645C29.5941 17.3098 27.7123 16.4746 25.7031 16.4746C22.3184 16.4746 19.4901 18.8377 18.7374 21.9956C17.9332 21.729 17.0668 21.729 16.2626 21.9956C15.5099 18.8377 12.6816 16.4746 9.29688 16.4746C7.28766 16.4746 5.40586 17.3098 4.10156 18.645V7.24609C4.10156 6.68035 4.56121 6.2207 5.12695 6.2207H8.27148V4.16992H5.12695C3.43068 4.16992 2.05078 5.54982 2.05078 7.24609V22.627H0V24.6777H2.15441C2.65733 28.147 5.69058 30.8301 9.29688 30.8301C13.0612 30.8301 16.1244 27.9062 16.4177 24.2158C17.0704 23.7437 17.9296 23.7437 18.5823 24.2158C18.8755 27.9061 21.9388 30.8301 25.7031 30.8301C29.3094 30.8301 32.3427 28.147 32.8456 24.6777H35V22.627H32.9492V7.24609Z" fill="#0A2F45"/>
</g>
</g>
<defs>
<clipPath id="clip0_294_3370">
<rect width="35" height="35" fill="white"/>
</clipPath>
</defs>
</svg>
