<svg width="30" height="30" viewBox="0 0 30 30" fill="none" xmlns="http://www.w3.org/2000/svg">
<path d="M25.5424 12.8236V23.1711C25.5424 23.9742 25.251 24.7483 24.7198 25.3572C24.4089 25.7166 24.166 26.128 23.9976 26.5749C23.8292 27.0218 23.745 27.4914 23.745 27.9675V29.25H10.8941V27.2939L10.7516 27.0251C10.7354 27.0121 9.24237 25.9887 7.88214 23.7055C6.998 22.2222 7.02066 21.0077 7.04657 19.7252C7.07573 18.1771 7.10811 16.4218 5.5147 14.0317C4.38766 12.3378 4.15123 10.9679 4.85403 10.1744C5.37544 9.58499 6.35998 9.44573 6.89112 9.71454C9.278 10.9193 10.2593 16.3926 10.269 16.4477L10.9103 16.3926V2.71261C10.9103 1.6309 11.7912 0.75 12.8729 0.75C13.9546 0.75 14.8355 1.6309 14.8355 2.71261V13.1993H15.4832V7.64181C15.7747 7.47663 16.1018 7.38596 16.4419 7.38596C16.9633 7.38596 17.4556 7.59 17.828 7.96243C18.1616 8.29602 18.3624 8.73647 18.398 9.21902C18.4012 9.26113 18.4045 9.30323 18.4045 9.34858V13.588H19.0522V9.35828C19.3437 9.19313 19.6708 9.09919 20.0108 9.09919C20.5323 9.09919 21.0245 9.30323 21.397 9.67568C21.7403 10.0157 21.9411 10.4692 21.967 10.9549L21.9702 10.9906C21.9735 11.0132 21.9735 11.0391 21.9735 11.0618V14.3976H22.6212V11.1201C22.9094 10.9517 23.2365 10.861 23.5798 10.861C24.1012 10.861 24.5935 11.065 24.966 11.4375C25.3384 11.8035 25.5424 12.299 25.5424 12.8236Z" fill="#407595"/>
</svg>
