<svg width="32" height="23" viewBox="0 0 32 23" fill="none" xmlns="http://www.w3.org/2000/svg">
<path d="M11.5252 13.95H9.8252C9.4752 13.95 9.2002 13.675 9.2002 13.325V11.7H7.5752C7.2252 11.7 6.9502 11.425 6.9502 11.075V9.375C6.9502 9.025 7.2252 8.75 7.5752 8.75H9.2002V7.125C9.2002 6.775 9.4752 6.5 9.8252 6.5H11.5252C11.8752 6.5 12.1502 6.775 12.1502 7.125V8.75H13.7752C14.1252 8.75 14.4002 9.025 14.4002 9.375V11.075C14.4002 11.425 14.1252 11.7 13.7752 11.7H12.1502V13.325C12.1502 13.675 11.8752 13.95 11.5252 13.95ZM10.1002 13.075H11.3002V11.45C11.3002 11.1 11.5752 10.825 11.9252 10.825H13.5502V9.625H11.9252C11.5752 9.625 11.3002 9.35 11.3002 9V7.375H10.1002V9C10.1002 9.35 9.8252 9.625 9.4752 9.625H7.8502V10.825H9.4752C9.8252 10.825 10.1002 11.1 10.1002 11.45V13.075Z" fill="#016086" stroke="#016086" stroke-width="0.5"/>
<path d="M30.575 22.325H4.2C3.95 22.325 3.75 22.125 3.75 21.875V4.2C3.75 3.95 3.95 3.75 4.2 3.75H30.575C30.825 3.75 31.025 3.95 31.025 4.2V21.875C31 22.125 30.825 22.325 30.575 22.325ZM4.625 21.45H30.125V4.625H4.625V21.45Z" fill="#016086" stroke="#016086" stroke-width="0.5"/>
<path d="M27.825 8.1251H17.825C17.575 8.1251 17.375 7.9251 17.375 7.6751C17.375 7.4251 17.575 7.2251 17.825 7.2251H27.825C28.075 7.2251 28.275 7.4251 28.275 7.6751C28.25 7.9251 28.05 8.1251 27.825 8.1251Z" fill="#016086" stroke="#016086" stroke-width="0.5"/>
<path d="M27.825 11.775H17.825C17.575 11.775 17.375 11.575 17.375 11.325C17.375 11.075 17.575 10.875 17.825 10.875H27.825C28.075 10.875 28.275 11.075 28.275 11.325C28.25 11.575 28.05 11.775 27.825 11.775Z" fill="#016086" stroke="#016086" stroke-width="0.5"/>
<path d="M27.825 15.4251H17.825C17.575 15.4251 17.375 15.2251 17.375 14.9751C17.375 14.7251 17.575 14.5251 17.825 14.5251H27.825C28.075 14.5251 28.275 14.7251 28.275 14.9751C28.275 15.2251 28.05 15.4251 27.825 15.4251Z" fill="#016086" stroke="#016086" stroke-width="0.5"/>
<path d="M27.8252 19.0751H7.4002C7.1502 19.0751 6.9502 18.875 6.9502 18.625C6.9502 18.375 7.1502 18.175 7.4002 18.175H27.8252C28.0752 18.175 28.2752 18.375 28.2752 18.625C28.2502 18.875 28.0502 19.0751 27.8252 19.0751Z" fill="#016086" stroke="#016086" stroke-width="0.5"/>
<path d="M1.45 19.55C1.2 19.55 1 19.35 1 19.1V1.45C1 1.2 1.2 1 1.45 1H27.825C28.075 1 28.275 1.2 28.275 1.45C28.275 1.7 28.075 1.9 27.825 1.9H1.875V19.15C1.875 19.35 1.675 19.55 1.45 19.55Z" fill="#016086" stroke="#016086" stroke-width="0.5"/>
</svg>
