<svg width="50" height="50" viewBox="0 0 50 50" fill="none" xmlns="http://www.w3.org/2000/svg">
<path d="M24.9998 0C11.1928 0 0 11.1928 0 24.9998C0 38.8069 11.1928 50.0001 24.9998 50.0001C38.8069 50.0001 50.0001 38.8069 50.0001 24.9998C49.9846 11.1992 38.801 0.0155639 24.9998 0ZM24.9998 47.4998C12.5734 47.4998 2.49985 37.4263 2.49985 24.9998C2.49985 12.5734 12.5734 2.49985 24.9998 2.49985C37.4263 2.49985 47.4998 12.5734 47.4998 24.9998C47.4857 37.4203 37.4203 47.4857 24.9998 47.4998Z" fill="#016086"/>
<path d="M22.073 15.309C21.553 14.8544 20.7634 14.9075 20.3088 15.4271C19.8547 15.9471 19.9078 16.7368 20.4274 17.1913L29.3519 24.9998L20.4269 32.8088C19.9069 33.2634 19.8542 34.053 20.3083 34.5726C20.7629 35.0926 21.5525 35.1457 22.0726 34.6912L32.0724 25.941C32.3439 25.7039 32.4995 25.3606 32.4995 24.9998C32.4995 24.6391 32.3439 24.2963 32.0724 24.0587L22.073 15.309Z" fill="#F0413E"/>
</svg>
