<svg width="32" height="30" viewBox="0 0 32 30" fill="none" xmlns="http://www.w3.org/2000/svg">
<path d="M8.03116 20.5662C6.2797 20.5662 4.85352 19.14 4.85352 17.3886C4.85352 15.6371 6.2797 14.2109 8.03116 14.2109C9.78262 14.2109 11.2088 15.6371 11.2088 17.3886C11.2088 19.14 9.78262 20.5662 8.03116 20.5662ZM8.03116 15.0867C6.7551 15.0867 5.72925 16.1125 5.72925 17.3886C5.72925 18.6646 6.7551 19.6905 8.03116 19.6905C9.30723 19.6905 10.3331 18.6646 10.3331 17.3886C10.3331 16.1125 9.30723 15.0867 8.03116 15.0867Z" fill="#016086" stroke="#016086" stroke-width="0.5"/>
<path d="M4.22772 27.0967C3.97751 27.0967 3.77734 26.8965 3.77734 26.6463V24.9199C3.77734 24.6696 3.97751 24.4695 4.22772 24.4695C4.47793 24.4695 4.67809 24.6696 4.67809 24.9199V26.6463C4.67809 26.8965 4.47793 27.0967 4.22772 27.0967Z" fill="#016086" stroke="#016086" stroke-width="0.5"/>
<path d="M1.45038 27.0967C1.20017 27.0967 1 26.8966 1 26.6464V23.1434C1 21.7673 2.12594 20.6414 3.50208 20.6414H5.22852C5.62886 20.6414 6.02919 20.7915 6.32944 21.0417L8.03086 22.4429L9.73228 21.0417C10.0575 20.7915 10.4329 20.6414 10.8332 20.6414C11.0834 20.6414 11.2836 20.8415 11.2836 21.0917C11.2836 21.3419 11.0834 21.5421 10.8332 21.5421C10.633 21.5421 10.4329 21.6172 10.2827 21.7423L8.30609 23.3686C8.15596 23.4937 7.90575 23.4937 7.75563 23.3686L5.77898 21.7423C5.62886 21.6172 5.42869 21.5421 5.22852 21.5421H3.50208C2.60133 21.5421 1.87573 22.2677 1.87573 23.1685V26.6964C1.87573 26.8966 1.67556 27.0967 1.45038 27.0967Z" fill="#016086" stroke="#016086" stroke-width="0.5"/>
<path d="M23.9696 20.5662C22.2182 20.5662 20.792 19.14 20.792 17.3886C20.792 15.6371 22.2182 14.2109 23.9696 14.2109C25.7211 14.2109 27.1473 15.6371 27.1473 17.3886C27.1473 19.14 25.7211 20.5662 23.9696 20.5662ZM23.9696 15.0867C22.6936 15.0867 21.6677 16.1125 21.6677 17.3886C21.6677 18.6646 22.6936 19.6905 23.9696 19.6905C25.2457 19.6905 26.2716 18.6646 26.2716 17.3886C26.2716 16.1125 25.2457 15.0867 23.9696 15.0867Z" fill="#016086" stroke="#016086" stroke-width="0.5"/>
<path d="M27.7726 27.0967C27.5224 27.0967 27.3223 26.8965 27.3223 26.6463V24.9199C27.3223 24.6696 27.5224 24.4695 27.7726 24.4695C28.0229 24.4695 28.223 24.6696 28.223 24.9199V26.6463C28.198 26.8965 27.9978 27.0967 27.7726 27.0967Z" fill="#016086" stroke="#016086" stroke-width="0.5"/>
<path d="M30.575 27.0966C30.3248 27.0966 30.1246 26.8964 30.1246 26.6462V23.1433C30.1246 22.2426 29.399 21.517 28.4983 21.517H26.7718C26.5717 21.517 26.3715 21.592 26.2214 21.7171L24.2447 23.3435C24.0946 23.4686 23.8444 23.4686 23.6943 23.3435L21.7176 21.7171C21.5675 21.592 21.3673 21.517 21.1672 21.517C20.917 21.517 20.7168 21.3168 20.7168 21.0666C20.7168 20.8164 20.917 20.6162 21.1672 20.6162C21.5675 20.6162 21.9678 20.7663 22.2681 21.0165L23.9695 22.4177L25.6709 21.0165C25.9962 20.7663 26.3715 20.6162 26.7718 20.6162H28.4983C29.8744 20.6162 31.0004 21.7421 31.0004 23.1183V26.6462C31.0004 26.8964 30.8002 27.0966 30.575 27.0966Z" fill="#016086" stroke="#016086" stroke-width="0.5"/>
<path d="M16.0126 22.9432C14.2611 22.9432 12.835 21.517 12.835 19.7655C12.835 18.0141 14.2611 16.5879 16.0126 16.5879C17.7641 16.5879 19.1903 18.0141 19.1903 19.7655C19.1903 21.542 17.7641 22.9432 16.0126 22.9432ZM16.0126 17.4886C14.7365 17.4886 13.7107 18.5145 13.7107 19.7906C13.7107 21.0666 14.7365 22.0925 16.0126 22.0925C17.2887 22.0925 18.3145 21.0666 18.3145 19.7906C18.3145 18.5145 17.2887 17.4886 16.0126 17.4886Z" fill="#016086" stroke="#016086" stroke-width="0.5"/>
<path d="M12.2092 28.9984C11.959 28.9984 11.7588 28.7982 11.7588 28.548V27.322C11.7588 27.0717 11.959 26.8716 12.2092 26.8716C12.4594 26.8716 12.6595 27.0717 12.6595 27.322V28.548C12.6595 28.7982 12.4594 28.9984 12.2092 28.9984Z" fill="#016086" stroke="#016086" stroke-width="0.5"/>
<path d="M22.6178 28.9982C22.3676 28.9982 22.1674 28.798 22.1674 28.5478V25.5453C22.1674 24.6445 21.4418 23.9189 20.5411 23.9189H18.8146C18.6145 23.9189 18.4143 23.994 18.2642 24.1191L16.2875 25.7455C16.1374 25.8706 15.8872 25.8706 15.7371 25.7455L13.7604 24.1191C13.6103 23.994 13.4101 23.9189 13.21 23.9189H11.4835C10.5828 23.9189 9.85718 24.6445 9.85718 25.5453V28.5728C9.85718 28.823 9.65701 29.0232 9.4068 29.0232C9.15659 29.0232 8.98145 28.823 8.98145 28.5728V25.5453C8.98145 24.1692 10.1074 23.0432 11.4835 23.0432H13.21C13.6103 23.0432 14.0106 23.1933 14.3109 23.4435L16.0123 24.8447L17.7137 23.4435C18.039 23.1933 18.4143 23.0432 18.8146 23.0432H20.5411C21.9172 23.0432 23.0432 24.1692 23.0432 25.5453V28.5728C23.0432 28.798 22.843 28.9982 22.6178 28.9982Z" fill="#016086" stroke="#016086" stroke-width="0.5"/>
<path d="M19.8156 28.9984C19.5654 28.9984 19.3652 28.7982 19.3652 28.548V27.322C19.3652 27.0717 19.5654 26.8716 19.8156 26.8716C20.0658 26.8716 20.266 27.0717 20.266 27.322V28.548C20.241 28.7982 20.0408 28.9984 19.8156 28.9984Z" fill="#016086" stroke="#016086" stroke-width="0.5"/>
<path d="M16.0125 14.1109C12.3845 14.1109 9.45703 11.1585 9.45703 7.55546C9.45703 3.95246 12.3845 1 16.0125 1C19.6405 1 22.568 3.95246 22.568 7.55546C22.568 11.1585 19.6155 14.1109 16.0125 14.1109ZM16.0125 1.87573C12.8849 1.87573 10.3328 4.42786 10.3328 7.55546C10.3328 10.6831 12.8599 13.2352 16.0125 13.2352C19.1401 13.2352 21.6922 10.6831 21.6922 7.55546C21.6922 4.42786 19.1401 1.87573 16.0125 1.87573Z" fill="#016086" stroke="#016086" stroke-width="0.5"/>
<path d="M17.0131 11.4587H14.9864C14.7362 11.4587 14.536 11.2586 14.536 11.0083V9.00668H12.5344C12.2842 9.00668 12.084 8.80651 12.084 8.5563V6.52962C12.084 6.27941 12.2842 6.07924 12.5344 6.07924H14.536V4.07757C14.536 3.82736 14.7362 3.6272 14.9864 3.6272H17.0131C17.2633 3.6272 17.4635 3.82736 17.4635 4.07757V6.07924H19.4651C19.7153 6.07924 19.9155 6.27941 19.9155 6.52962V8.5563C19.9155 8.80651 19.7153 9.00668 19.4651 9.00668H17.4635V11.0083C17.4635 11.2586 17.2633 11.4587 17.0131 11.4587ZM15.4368 10.583H16.5877V8.58133C16.5877 8.33112 16.7879 8.13095 17.0381 8.13095H19.0398V6.97999H17.0381C16.7879 6.97999 16.5877 6.77982 16.5877 6.52962V4.52795H15.4368V6.52962C15.4368 6.77982 15.2366 6.97999 14.9864 6.97999H12.9847V8.13095H14.9864C15.2366 8.13095 15.4368 8.33112 15.4368 8.58133V10.583Z" fill="#016086" stroke="#016086" stroke-width="0.5"/>
</svg>
