<svg width="31" height="32" viewBox="0 0 31 32" fill="none" xmlns="http://www.w3.org/2000/svg">
<path d="M23.697 18.2727H3.90909C2.30303 18.2727 1 16.9697 1 15.3636V3.90909C1 2.30303 2.30303 1 3.90909 1H23.697C25.303 1 26.6061 2.30303 26.6061 3.90909V15.3939C26.5758 16.9697 25.2727 18.2727 23.697 18.2727ZM3.90909 2.06061C2.90909 2.06061 2.06061 2.87879 2.06061 3.90909V15.3939C2.06061 16.3939 2.87879 17.2424 3.90909 17.2424H23.697C24.697 17.2424 25.5455 16.4242 25.5455 15.3939V3.90909C25.5455 2.90909 24.7273 2.06061 23.697 2.06061H3.90909Z" fill="#016086" stroke="#016086" stroke-width="0.5"/>
<path d="M17.3933 21.0907H10.1812C9.87817 21.0907 9.63574 20.8483 9.63574 20.5453V17.7271C9.63574 17.4241 9.87817 17.1816 10.1812 17.1816C10.4842 17.1816 10.7267 17.4241 10.7267 17.7271V19.9998H16.8782V17.7271C16.8782 17.4241 17.1206 17.1816 17.4236 17.1816C17.7267 17.1816 17.9691 17.4241 17.9691 17.7271V20.5453C17.9388 20.8483 17.6963 21.0907 17.3933 21.0907Z" fill="#016086" stroke="#016086" stroke-width="0.5"/>
<path d="M19.6066 21.0911H7.97026C7.66723 21.0911 7.4248 20.8487 7.4248 20.5457C7.4248 20.2426 7.66723 20.0305 7.97026 20.0305H19.6066C19.9097 20.0305 20.1521 20.2729 20.1521 20.5457C20.1521 20.8487 19.9097 21.0911 19.6066 21.0911Z" fill="#016086" stroke="#016086" stroke-width="0.5"/>
<path d="M10.5157 30.0001H6.97026C6.66723 30.0001 6.4248 29.7577 6.4248 29.4547V26.4244C6.4248 26.1213 6.66723 25.8789 6.97026 25.8789H10.5157C11.6369 25.8789 12.5763 26.788 12.5763 27.9395C12.546 29.0607 11.6369 30.0001 10.5157 30.0001ZM7.48541 28.9395H10.5157C11.0612 28.9395 11.5157 28.485 11.5157 27.9395C11.5157 27.3941 11.0612 26.9395 10.5157 26.9395H7.48541V28.9395Z" fill="#016086" stroke="#016086" stroke-width="0.5"/>
<path d="M5.42584 31.0004C4.30463 31.0004 3.36523 30.0913 3.36523 28.9398V26.9095C3.36523 25.7883 4.27433 24.8489 5.42584 24.8489C6.54705 24.8489 7.48645 25.758 7.48645 26.9095V28.9398C7.48645 30.0913 6.57736 31.0004 5.42584 31.0004ZM5.42584 25.9398C4.88039 25.9398 4.42584 26.3943 4.42584 26.9398V28.9701C4.42584 29.5155 4.88039 29.9701 5.42584 29.9701C5.9713 29.9701 6.42584 29.5155 6.42584 28.9701V26.9398C6.42584 26.3943 5.9713 25.9398 5.42584 25.9398Z" fill="#016086" stroke="#016086" stroke-width="0.5"/>
<path d="M27.6371 28.4849H13.7886C13.4856 28.4849 13.2432 28.2425 13.2432 27.9394C13.2432 27.6364 13.4856 27.394 13.7886 27.394H27.6371C28.6674 27.394 29.5159 26.5455 29.5159 25.5152V17.1819C29.5159 16.1516 28.6674 15.3031 27.6371 15.3031C27.3341 15.3031 27.0916 15.0606 27.0916 14.7576C27.0916 14.4546 27.3341 14.2122 27.6371 14.2122C29.2432 14.2122 30.5765 15.5152 30.5765 17.1516V25.5455C30.5462 27.1516 29.2432 28.4849 27.6371 28.4849Z" fill="#016086" stroke="#016086" stroke-width="0.5"/>
<path d="M14.697 15.0304C13.3637 15.0304 11.9092 14.1819 10.5152 12.5759C8.78795 10.6062 7.2728 7.51524 7.75764 5.81827C7.96977 5.0304 8.39401 4.48494 9.03037 4.15161C10.2122 3.51524 11.6667 4.00009 11.7273 4.0304C11.7576 4.0304 11.7576 4.0304 11.7879 4.0607C12.7273 4.48494 13.3031 5.091 13.5152 5.84858C13.697 6.48494 13.5758 7.091 13.394 7.51524C14.0304 7.87888 14.6061 8.63646 15.0001 9.27282C15.5152 8.78797 16.3637 8.69706 17.7879 8.75767C19.2728 8.78797 20.0304 9.36373 20.394 9.81827C20.7879 10.3334 20.9698 11.0001 20.8183 11.6062C20.7273 12.0304 20.5455 12.3031 20.2425 12.4546C19.697 12.7274 19.0607 12.4546 18.0304 11.9698C18.0304 12.0304 18.0001 12.1213 18.0001 12.1819C17.8486 13.0607 17.5758 14.6668 15.1516 15.0001C14.9698 15.0001 14.8183 15.0304 14.697 15.0304ZM10.394 4.87888C10.091 4.87888 9.75765 4.93949 9.48492 5.091C9.12128 5.27282 8.87886 5.60615 8.72734 6.091C8.42431 7.1213 9.39401 9.75767 11.2728 11.8789C12.5455 13.3334 13.9092 14.091 14.9395 13.9395C16.5758 13.6971 16.7576 12.788 16.8789 11.9698C16.9395 11.5455 17.0304 11.091 17.4243 10.8789C17.6667 10.7577 17.9698 10.7577 18.3031 10.9395C18.6667 11.1213 19.4243 11.4849 19.6667 11.4849C19.6667 11.4546 19.697 11.4243 19.697 11.3637C19.7273 11.2425 19.7879 10.8486 19.4546 10.4546C19.1819 10.0304 18.5758 9.81827 17.7273 9.78797C15.6667 9.72737 15.6364 9.96979 15.5455 10.4849C15.5152 10.6971 15.3334 10.8789 15.091 10.9092C14.8789 10.9395 14.6364 10.8183 14.5455 10.6365C13.9395 9.45464 13.0304 8.33343 12.6667 8.36373C12.4546 8.39403 12.2728 8.27282 12.1516 8.091C12.0607 7.90918 12.0607 7.69706 12.1819 7.51524C12.1819 7.51524 12.6667 6.78797 12.4546 6.091C12.3334 5.66676 11.9395 5.30312 11.3334 5.00009C11.2425 5.00009 10.8486 4.87888 10.394 4.87888Z" fill="#016086" stroke="#016086" stroke-width="0.5"/>
</svg>
