<svg width="27" height="32" viewBox="0 0 27 32" fill="none" xmlns="http://www.w3.org/2000/svg">
<path d="M3.80888 21.0965C3.66409 21.0965 3.49035 21.0386 3.40348 20.8938C1.83977 18.722 1 16.1737 1 13.5097C1 6.61776 6.61776 1 13.5097 1C20.4015 1 26.0193 6.61776 26.0193 13.5097C26.0193 16.1737 25.1795 18.722 23.6158 20.8649C23.4421 21.0965 23.1236 21.1544 22.9209 20.9807C22.6892 20.8069 22.6313 20.4884 22.805 20.2857C24.2529 18.3166 25.0058 15.971 25.0058 13.5097C25.0348 7.16795 19.8514 2.01351 13.5097 2.01351C7.16795 2.01351 2.01351 7.16795 2.01351 13.5097C2.01351 15.971 2.76641 18.2876 4.21429 20.2857C4.38803 20.5174 4.33012 20.8359 4.09846 20.9807C4.01158 21.0676 3.89575 21.0965 3.80888 21.0965Z" fill="#016086" stroke="#016086" stroke-width="0.5"/>
<path d="M20.3727 19.0694C20.2568 19.0694 20.17 19.0405 20.0831 18.9826C19.8514 18.8088 19.7935 18.4903 19.9673 18.2876C20.9518 16.9266 21.502 15.305 21.502 13.5965C21.502 9.19492 17.9402 5.63314 13.5387 5.63314C9.13715 5.63314 5.57538 9.19492 5.57538 13.5965C5.57538 15.305 6.09661 16.9266 7.11013 18.2876C7.28387 18.5192 7.22596 18.8378 6.9943 18.9826C6.76264 19.1563 6.4441 19.0984 6.29931 18.8667C5.16997 17.332 4.59082 15.5077 4.59082 13.5965C4.59082 8.64473 8.61592 4.61963 13.5677 4.61963C18.5194 4.61963 22.5445 8.64473 22.5445 13.5965C22.5445 15.5077 21.9364 17.332 20.836 18.8667C20.6912 19.0115 20.5464 19.0694 20.3727 19.0694Z" fill="#016086" stroke="#016086" stroke-width="0.5"/>
<path d="M20.3145 24.7453H6.73341C6.00948 24.7453 5.40137 24.1372 5.40137 23.4132V22.5445C5.40137 21.1835 6.50175 20.1121 7.8338 20.1121H19.2141C20.5751 20.1121 21.6465 21.2124 21.6465 22.5445V23.4132C21.6465 24.1372 21.0384 24.7453 20.3145 24.7453ZM7.8338 21.0966C7.05195 21.0966 6.41488 21.7337 6.41488 22.5155V23.3843C6.41488 23.558 6.55967 23.7028 6.73341 23.7028H20.3145C20.4882 23.7028 20.633 23.558 20.633 23.3843V22.5155C20.633 21.7337 19.996 21.0966 19.2141 21.0966H7.8338Z" fill="#016086" stroke="#016086" stroke-width="0.5"/>
<path d="M7.39917 31.0002C7.10959 31.0002 6.87793 30.7685 6.87793 30.4789V24.2241C6.87793 23.9345 7.10959 23.7029 7.39917 23.7029C7.68874 23.7029 7.9204 23.9345 7.9204 24.2241V30.4789C7.89144 30.7685 7.65978 31.0002 7.39917 31.0002Z" fill="#016086" stroke="#016086" stroke-width="0.5"/>
<path d="M19.6482 31.0002C19.3586 31.0002 19.127 30.7685 19.127 30.4789V24.2241C19.127 23.9345 19.3586 23.7029 19.6482 23.7029C19.9378 23.7029 20.1694 23.9345 20.1694 24.2241V30.4789C20.1694 30.7685 19.9378 31.0002 19.6482 31.0002Z" fill="#016086" stroke="#016086" stroke-width="0.5"/>
<path d="M16.7818 21.0965H10.2664C9.97678 21.0965 9.74512 20.8649 9.74512 20.5753V19.4749C9.74512 18.4324 10.6138 17.5637 11.6563 17.5637H15.3918C16.4343 17.5637 17.303 18.4324 17.303 19.4749V20.5753C17.303 20.8649 17.0714 21.0965 16.7818 21.0965ZM10.7586 20.083H16.2606V19.5039C16.2606 19.0116 15.8552 18.6062 15.3629 18.6062H11.6563C11.164 18.6062 10.7586 19.0116 10.7586 19.5039V20.083Z" fill="#016086" stroke="#016086" stroke-width="0.5"/>
</svg>
