<svg width="32" height="32" viewBox="0 0 32 32" fill="none" xmlns="http://www.w3.org/2000/svg">
<path d="M12.0976 23.1951C5.96951 23.1951 1 18.2256 1 12.0976C1 5.96951 5.96951 1 12.0976 1C18.2256 1 23.1951 5.96951 23.1951 12.0976C23.1951 18.2256 18.2256 23.1951 12.0976 23.1951ZM12.0976 2.06707C6.57927 2.06707 2.06707 6.57927 2.06707 12.0976C2.06707 17.6463 6.57927 22.128 12.0976 22.128C17.6463 22.128 22.128 17.6159 22.128 12.0976C22.128 6.57927 17.6463 2.06707 12.0976 2.06707Z" fill="#016086" stroke="#016086" stroke-width="0.5"/>
<path d="M22.9511 23.4696C22.8291 23.4696 22.6767 23.4086 22.5852 23.3171L19.2011 19.933C18.9877 19.7196 18.9877 19.3842 19.2011 19.1708C19.4145 18.9574 19.7499 18.9574 19.9633 19.1708L23.3474 22.5549C23.5608 22.7684 23.5608 23.1037 23.3474 23.3171C23.2255 23.4391 23.073 23.4696 22.9511 23.4696Z" fill="#016086" stroke="#016086" stroke-width="0.5"/>
<path d="M28.4386 31.0001C28.0118 31.0001 27.585 30.8477 27.2801 30.5123L22.0972 25.3599C21.7923 25.055 21.6094 24.6282 21.6094 24.2014C21.6094 23.7745 21.7923 23.3477 22.0972 23.0428L23.0118 22.1282C23.3167 21.8233 23.7435 21.6404 24.1704 21.6404C24.5972 21.6404 25.024 21.8233 25.3289 22.1282L30.4813 27.2806C30.7862 27.5855 30.9691 28.0123 30.9691 28.4392C30.9691 28.866 30.7862 29.2928 30.4813 29.5977L29.5667 30.5123C29.2618 30.8477 28.8655 31.0001 28.4386 31.0001ZM24.2008 22.677C24.0484 22.677 23.896 22.7379 23.8045 22.8599L22.8899 23.7745C22.6764 23.9879 22.6764 24.3538 22.8899 24.5977L28.0423 29.7501C28.2557 29.9636 28.6216 29.9636 28.8655 29.7501L29.7801 28.8355C29.9935 28.6221 29.9935 28.2257 29.7801 28.0123L24.5972 22.8599C24.5057 22.7379 24.3533 22.677 24.2008 22.677Z" fill="#016086" stroke="#016086" stroke-width="0.5"/>
<path d="M12.0979 16.6403C9.26251 16.6403 6.61007 15.1464 4.65885 12.4025C4.5369 12.2195 4.5369 11.9756 4.65885 11.7622C6.64055 9.01832 9.29299 7.52441 12.0979 7.52441C14.9332 7.52441 17.5857 9.01832 19.5369 11.7622C19.6588 11.9451 19.6588 12.189 19.5369 12.4025C17.5857 15.1464 14.9332 16.6403 12.0979 16.6403ZM5.75641 12.0976C7.49421 14.3537 9.75031 15.5732 12.0979 15.5732C14.4759 15.5732 16.7015 14.3537 18.4393 12.0976C16.7015 9.84149 14.4759 8.62198 12.0979 8.62198C9.71982 8.62198 7.49421 9.84149 5.75641 12.0976Z" fill="#016086" stroke="#016086" stroke-width="0.5"/>
<path d="M12.0981 14.6891C10.6652 14.6891 9.53711 13.5306 9.53711 12.1281C9.53711 10.6952 10.6956 9.56714 12.0981 9.56714C13.531 9.56714 14.6591 10.7257 14.6591 12.1281C14.6895 13.5306 13.531 14.6891 12.0981 14.6891ZM12.0981 10.6037C11.2749 10.6037 10.6042 11.2745 10.6042 12.0976C10.6042 12.9208 11.2749 13.5915 12.0981 13.5915C12.9213 13.5915 13.592 12.9208 13.592 12.0976C13.6225 11.2745 12.9213 10.6037 12.0981 10.6037Z" fill="#016086" stroke="#016086" stroke-width="0.5"/>
</svg>
