<svg width="25" height="25" viewBox="0 0 25 25" fill="none" xmlns="http://www.w3.org/2000/svg">
<path d="M14.369 2.22235e-05C12.377 -0.00305384 10.4245 0.55612 8.73554 1.61336C7.04662 2.6706 5.68978 4.18305 4.82077 5.97711C3.95176 7.77116 3.60579 9.77412 3.82258 11.7561C4.03937 13.738 4.81013 15.6186 6.04639 17.1819L0.381045 22.8522C0.261834 22.9674 0.166747 23.1053 0.101333 23.2577C0.035919 23.4101 0.00148726 23.574 4.7126e-05 23.7399C-0.00139301 23.9058 0.0301873 24.0703 0.0929453 24.2238C0.155703 24.3773 0.248382 24.5168 0.365574 24.6341C0.482766 24.7514 0.622124 24.8442 0.775517 24.907C0.92891 24.9698 1.09327 25.0014 1.25899 25C1.42472 24.9985 1.5885 24.964 1.74078 24.8986C1.89306 24.8331 2.03079 24.7379 2.14593 24.6186L7.81127 18.9484C9.13968 19.9994 10.7002 20.717 12.3623 21.041C14.0245 21.3651 15.74 21.2862 17.3654 20.811C18.9909 20.3358 20.4791 19.478 21.7056 18.3095C22.9321 17.1409 23.8614 15.6955 24.4156 14.094C24.9699 12.4925 25.1331 10.7814 24.8915 9.10392C24.65 7.4264 24.0108 5.83111 23.0273 4.4514C22.0438 3.0717 20.7446 1.94766 19.2383 1.17325C17.732 0.39884 16.0624 -0.00344499 14.369 2.22235e-05ZM14.369 18.7385C12.7644 18.7385 11.1959 18.2623 9.86172 17.37C8.52755 16.4778 7.48769 15.2096 6.87364 13.7259C6.25959 12.2421 6.09892 10.6095 6.41196 9.03435C6.72501 7.45923 7.49769 6.01238 8.63231 4.87678C9.76693 3.74118 11.2125 2.96782 12.7863 2.65451C14.36 2.3412 15.9913 2.502 17.4737 3.11658C18.9562 3.73117 20.2233 4.77193 21.1147 6.10726C22.0062 7.44258 22.482 9.0125 22.482 10.6185C22.4794 12.7712 21.6238 14.8351 20.1028 16.3573C18.5819 17.8795 16.5199 18.7358 14.369 18.7385Z" fill="#0A2F45"/>
</svg>
