<svg width="32" height="32" viewBox="0 0 32 32" fill="none" xmlns="http://www.w3.org/2000/svg">
<path d="M20.8988 27.8123C20.731 27.8123 20.5968 27.7452 20.4961 27.6445L4.79141 11.9733C4.55651 11.7385 4.55651 11.3693 4.79141 11.1344L11.1337 4.79214C11.3686 4.55724 11.7377 4.55724 11.9726 4.79214L27.6438 20.4633C27.8787 20.6982 27.8787 21.0673 27.6438 21.3022L21.3015 27.6445C21.2008 27.7452 21.0666 27.8123 20.8988 27.8123ZM6.03302 11.5707L20.8652 26.4029L26.3686 20.8995L11.5699 6.03375L6.03302 11.5707Z" fill="#016086" stroke="#016086" stroke-width="0.5"/>
<path d="M5.86511 8.98678C5.73088 8.98678 5.5631 8.91967 5.46243 8.819L5.05974 8.41631C4.79129 8.14786 4.65706 7.74517 4.69061 7.37604C4.72417 7.00692 4.89196 6.63779 5.16041 6.36933L6.33491 5.19484C6.60337 4.92638 6.97249 4.7586 7.34162 4.72504C7.74431 4.69148 8.11343 4.82571 8.38189 5.09417L8.78457 5.49685C9.01947 5.73175 9.01947 6.10088 8.78457 6.33578C8.54967 6.57068 8.18055 6.57068 7.94565 6.33578L7.54296 5.93309C7.47585 5.86598 7.30806 5.89953 7.14028 6.03376L5.96578 7.20826C5.89867 7.27537 5.83155 7.37604 5.83155 7.47672C5.83155 7.51027 5.83155 7.57739 5.86511 7.61094L6.2678 8.01363C6.50269 8.24853 6.50269 8.61766 6.2678 8.85255C6.16712 8.91967 6.0329 8.98678 5.86511 8.98678Z" fill="#016086" stroke="#016086" stroke-width="0.5"/>
<path d="M26.9721 30.0606C26.8379 30.0606 26.6701 29.9935 26.5694 29.8928L22.3748 25.7317C22.2741 25.631 22.207 25.4633 22.207 25.329C22.207 25.1613 22.2741 25.027 22.3748 24.9264L24.8916 22.4096C25.1265 22.1747 25.4956 22.1747 25.7305 22.4096L29.8916 26.5706C29.9923 26.6713 30.0594 26.8391 30.0594 26.9733C30.0594 27.1411 29.9923 27.2753 29.8916 27.376L27.3748 29.8928C27.2741 30.027 27.1064 30.0606 26.9721 30.0606ZM23.65 25.329L26.9721 28.6512L28.65 26.9733L25.3278 23.6512L23.65 25.329Z" fill="#016086" stroke="#016086" stroke-width="0.5"/>
<path d="M26.033 31.0002C25.8987 31.0002 25.7309 30.9331 25.6303 30.8325C25.3954 30.5976 25.3954 30.2284 25.6303 29.9935L30.0262 25.5976C30.2611 25.3627 30.6303 25.3627 30.8652 25.5976C31.1001 25.8325 31.1001 26.2016 30.8652 26.4365L26.4356 30.8325C26.335 30.9667 26.1672 31.0002 26.033 31.0002Z" fill="#016086" stroke="#016086" stroke-width="0.5"/>
<path d="M6.20094 6.7719C6.06671 6.7719 5.89893 6.70479 5.79826 6.60412L1.16739 2.0068C0.932486 1.7719 0.932486 1.40277 1.16739 1.16787C1.40228 0.932974 1.77141 0.932974 2.00631 1.16787L6.60363 5.76519C6.83853 6.00009 6.83853 6.36922 6.60363 6.60412C6.50296 6.70479 6.33517 6.7719 6.20094 6.7719Z" fill="#016086" stroke="#016086" stroke-width="0.5"/>
<path d="M8.14722 15.0604C8.01299 15.0604 7.84521 14.9933 7.74453 14.8926C7.50963 14.6577 7.50963 14.2886 7.74453 14.0537L9.2546 12.5436C9.4895 12.3087 9.85863 12.3087 10.0935 12.5436C10.3284 12.7785 10.3284 13.1476 10.0935 13.3825L8.58346 14.8926C8.44923 14.9933 8.28145 15.0604 8.14722 15.0604Z" fill="#016086" stroke="#016086" stroke-width="0.5"/>
<path d="M11.4695 18.3827C11.3353 18.3827 11.1675 18.3155 11.0668 18.2149C10.8319 17.98 10.8319 17.6108 11.0668 17.3759L12.5769 15.8659C12.8118 15.631 13.1809 15.631 13.4158 15.8659C13.6507 16.1008 13.6507 16.4699 13.4158 16.7048L11.9057 18.2149C11.7715 18.3491 11.6373 18.3827 11.4695 18.3827Z" fill="#016086" stroke="#016086" stroke-width="0.5"/>
<path d="M14.7917 21.7381C14.6575 21.7381 14.4897 21.671 14.3891 21.5703C14.1542 21.3354 14.1542 20.9663 14.3891 20.7314L15.8991 19.2213C16.134 18.9864 16.5032 18.9864 16.7381 19.2213C16.973 19.4562 16.973 19.8254 16.7381 20.0603L15.228 21.5703C15.0938 21.671 14.9595 21.7381 14.7917 21.7381Z" fill="#016086" stroke="#016086" stroke-width="0.5"/>
<path d="M18.1472 25.0604C18.013 25.0604 17.8452 24.9933 17.7445 24.8926C17.5096 24.6577 17.5096 24.2886 17.7445 24.0537L19.2546 22.5436C19.4895 22.3087 19.8586 22.3087 20.0935 22.5436C20.3284 22.7785 20.3284 23.1476 20.0935 23.3825L18.5835 24.8926C18.4492 24.9933 18.2814 25.0604 18.1472 25.0604Z" fill="#016086" stroke="#016086" stroke-width="0.5"/>
</svg>
