<svg width="23" height="27" viewBox="0 0 23 27" fill="none" xmlns="http://www.w3.org/2000/svg">
<path d="M21.9903 21.1184C21.5986 18.6652 20.3341 16.4168 18.4299 14.7874C17.364 13.8752 16.1334 13.1905 14.8155 12.7606C16.6551 11.6462 17.886 9.63428 17.886 7.34209C17.886 3.84507 15.0212 1 11.5 1C7.97877 1 5.1141 3.84507 5.1141 7.34209C5.1141 9.63423 6.3449 11.6462 8.18453 12.7606C6.86665 13.1905 5.63604 13.8752 4.57008 14.7874C2.6659 16.4168 1.40142 18.6652 1.00972 21.1184C0.970138 21.3663 1.05288 21.618 1.23219 21.7949C3.98005 24.5065 7.62655 25.9999 11.5 25.9999C15.3734 25.9999 19.0199 24.5065 21.7678 21.7949C21.9471 21.6181 22.0299 21.3664 21.9903 21.1184ZM6.68739 7.34209C6.68739 4.70659 8.84634 2.5625 11.5 2.5625C14.1538 2.5625 16.3127 4.70659 16.3127 7.34209C16.3127 9.97764 14.1538 12.1218 11.5 12.1218C8.84634 12.1218 6.68739 9.97759 6.68739 7.34209ZM11.5 24.4374C8.18153 24.4374 5.04964 23.2085 2.63547 20.9683C3.49193 16.7885 7.15766 13.7957 11.5 13.7957C15.8423 13.7957 19.508 16.7885 20.3645 20.9683C17.9502 23.2085 14.8183 24.4374 11.5 24.4374Z" fill="#0A2F45" stroke="#0A2F45" stroke-width="0.5"/>
</svg>
